<svg xmlns="http://www.w3.org/2000/svg" viewBox="0 0 760 360" role="img" aria-labelledby="title desc">
  <title>SA DB Row progress</title>
  <desc>average load per rep over time from Mar 31 to Jul 21.</desc>
  <rect width="100%" height="100%" fill="#ffffff"/>
  <text x="72" y="24" font-family="Inter, Arial, sans-serif" font-size="18" font-weight="700" fill="#1f2328">SA DB Row</text>
  <text x="72" y="44" font-family="Inter, Arial, sans-serif" font-size="12" fill="#59636e">average load per rep</text>
  <line x1="72" y1="302" x2="732" y2="302" stroke="#d7dde4"/>
  <line x1="72" y1="38" x2="72" y2="302" stroke="#d7dde4"/>
  <line x1="72" y1="170.0" x2="732" y2="170.0" stroke="#eef1f5"/>
  <text x="62" y="306.0" text-anchor="end">25.4333</text>
<text x="62" y="174.0" text-anchor="end">40.4167</text>
<text x="62" y="42.0" text-anchor="end">55.4</text>
  <polyline points="72.0,276.5 113.2,217.7 154.5,173.7 195.8,129.6 237.0,142.2 278.2,173.7 319.5,129.6 360.8,129.6 402.0,129.6 443.2,107.6 484.5,85.6 525.8,85.6 567.0,85.6 608.2,85.6 649.5,85.6 690.8,85.6 732.0,63.5" fill="none" stroke="#0b57d0" stroke-width="3" stroke-linecap="round" stroke-linejoin="round"/>
  <g fill="#0b57d0"><circle cx="72.0" cy="276.5" r="4.5"><title>Mar 31: 28.3333</title></circle>
<circle cx="113.2" cy="217.7" r="4.5"><title>Apr 7: 35</title></circle>
<circle cx="154.5" cy="173.7" r="4.5"><title>Apr 14: 40</title></circle>
<circle cx="195.8" cy="129.6" r="4.5"><title>Apr 21: 45</title></circle>
<circle cx="237.0" cy="142.2" r="4.5"><title>Apr 28: 43.5714</title></circle>
<circle cx="278.2" cy="173.7" r="4.5"><title>May 5: 40</title></circle>
<circle cx="319.5" cy="129.6" r="4.5"><title>May 12: 45</title></circle>
<circle cx="360.8" cy="129.6" r="4.5"><title>May 19: 45</title></circle>
<circle cx="402.0" cy="129.6" r="4.5"><title>May 26: 45</title></circle>
<circle cx="443.2" cy="107.6" r="4.5"><title>Jun 2: 47.5</title></circle>
<circle cx="484.5" cy="85.6" r="4.5"><title>Jun 9: 50</title></circle>
<circle cx="525.8" cy="85.6" r="4.5"><title>Jun 18: 50</title></circle>
<circle cx="567.0" cy="85.6" r="4.5"><title>Jun 23: 50</title></circle>
<circle cx="608.2" cy="85.6" r="4.5"><title>Jul 2: 50</title></circle>
<circle cx="649.5" cy="85.6" r="4.5"><title>Jul 7: 50</title></circle>
<circle cx="690.8" cy="85.6" r="4.5"><title>Jul 14: 50</title></circle>
<circle cx="732.0" cy="63.5" r="4.5"><title>Jul 21: 52.5</title></circle></g>
  <text x="72" y="336" font-family="Inter, Arial, sans-serif" font-size="12" fill="#59636e" text-anchor="start">Mar 31</text>
  <text x="732" y="336" font-family="Inter, Arial, sans-serif" font-size="12" fill="#59636e" text-anchor="end">Jul 21</text>
</svg>
