<svg xmlns="http://www.w3.org/2000/svg" viewBox="0 0 760 360" role="img" aria-labelledby="title desc">
  <title>Incline DB Press progress</title>
  <desc>average load per rep over time from Apr 2 to Jul 23.</desc>
  <rect width="100%" height="100%" fill="#ffffff"/>
  <text x="72" y="24" font-family="Inter, Arial, sans-serif" font-size="18" font-weight="700" fill="#1f2328">Incline DB Press</text>
  <text x="72" y="44" font-family="Inter, Arial, sans-serif" font-size="12" fill="#59636e">average load per rep</text>
  <line x1="72" y1="302" x2="732" y2="302" stroke="#d7dde4"/>
  <line x1="72" y1="38" x2="72" y2="302" stroke="#d7dde4"/>
  <line x1="72" y1="170.0" x2="732" y2="170.0" stroke="#eef1f5"/>
  <text x="62" y="306.0" text-anchor="end">12.6</text>
<text x="62" y="174.0" text-anchor="end">25</text>
<text x="62" y="42.0" text-anchor="end">37.4</text>
  <polyline points="72.0,276.5 122.8,249.8 173.5,223.2 224.3,196.6 275.1,170.0 325.8,143.4 376.6,143.4 427.4,116.8 478.2,116.8 528.9,90.2 579.7,90.2 630.5,90.2 681.2,63.5 732.0,63.5" fill="none" stroke="#0b57d0" stroke-width="3" stroke-linecap="round" stroke-linejoin="round"/>
  <g fill="#0b57d0"><circle cx="72.0" cy="276.5" r="4.5"><title>Apr 2: 15</title></circle>
<circle cx="122.8" cy="249.8" r="4.5"><title>Apr 9: 17.5</title></circle>
<circle cx="173.5" cy="223.2" r="4.5"><title>Apr 16: 20</title></circle>
<circle cx="224.3" cy="196.6" r="4.5"><title>Apr 23: 22.5</title></circle>
<circle cx="275.1" cy="170.0" r="4.5"><title>Apr 30: 25</title></circle>
<circle cx="325.8" cy="143.4" r="4.5"><title>May 7: 27.5</title></circle>
<circle cx="376.6" cy="143.4" r="4.5"><title>May 21: 27.5</title></circle>
<circle cx="427.4" cy="116.8" r="4.5"><title>May 28: 30</title></circle>
<circle cx="478.2" cy="116.8" r="4.5"><title>Jun 4: 30</title></circle>
<circle cx="528.9" cy="90.2" r="4.5"><title>Jun 11: 32.5</title></circle>
<circle cx="579.7" cy="90.2" r="4.5"><title>Jun 25: 32.5</title></circle>
<circle cx="630.5" cy="90.2" r="4.5"><title>Jul 9: 32.5</title></circle>
<circle cx="681.2" cy="63.5" r="4.5"><title>Jul 16: 35</title></circle>
<circle cx="732.0" cy="63.5" r="4.5"><title>Jul 23: 35</title></circle></g>
  <text x="72" y="336" font-family="Inter, Arial, sans-serif" font-size="12" fill="#59636e" text-anchor="start">Apr 2</text>
  <text x="732" y="336" font-family="Inter, Arial, sans-serif" font-size="12" fill="#59636e" text-anchor="end">Jul 23</text>
</svg>
