<svg xmlns="http://www.w3.org/2000/svg" viewBox="0 0 760 360" role="img" aria-labelledby="title desc">
  <title>Trap Deadlift progress</title>
  <desc>average load per rep over time from Apr 2 to Jul 30.</desc>
  <rect width="100%" height="100%" fill="#ffffff"/>
  <text x="72" y="24" font-family="Inter, Arial, sans-serif" font-size="18" font-weight="700" fill="#1f2328">Trap Deadlift</text>
  <text x="72" y="44" font-family="Inter, Arial, sans-serif" font-size="12" fill="#59636e">average load per rep</text>
  <line x1="72" y1="302" x2="732" y2="302" stroke="#d7dde4"/>
  <line x1="72" y1="38" x2="72" y2="302" stroke="#d7dde4"/>
  <line x1="72" y1="170.0" x2="732" y2="170.0" stroke="#eef1f5"/>
  <text x="62" y="306.0" text-anchor="end">52.4</text>
<text x="62" y="174.0" text-anchor="end">117.5</text>
<text x="62" y="42.0" text-anchor="end">182.6</text>
  <polyline points="72.0,276.5 119.1,235.2 166.3,195.3 213.4,175.1 260.6,154.8 307.7,134.5 354.9,124.4 402.0,114.2 449.1,104.1 496.3,94.0 543.4,83.8 590.6,83.8 637.7,73.7 684.9,63.5 732.0,175.1" fill="none" stroke="#0b57d0" stroke-width="3" stroke-linecap="round" stroke-linejoin="round"/>
  <g fill="#0b57d0"><circle cx="72.0" cy="276.5" r="4.5"><title>Apr 2: 65</title></circle>
<circle cx="119.1" cy="235.2" r="4.5"><title>Apr 9: 85.3226</title></circle>
<circle cx="166.3" cy="195.3" r="4.5"><title>Apr 16: 105</title></circle>
<circle cx="213.4" cy="175.1" r="4.5"><title>Apr 23: 115</title></circle>
<circle cx="260.6" cy="154.8" r="4.5"><title>Apr 30: 125</title></circle>
<circle cx="307.7" cy="134.5" r="4.5"><title>May 7: 135</title></circle>
<circle cx="354.9" cy="124.4" r="4.5"><title>May 21: 140</title></circle>
<circle cx="402.0" cy="114.2" r="4.5"><title>May 28: 145</title></circle>
<circle cx="449.1" cy="104.1" r="4.5"><title>Jun 4: 150</title></circle>
<circle cx="496.3" cy="94.0" r="4.5"><title>Jun 11: 155</title></circle>
<circle cx="543.4" cy="83.8" r="4.5"><title>Jun 25: 160</title></circle>
<circle cx="590.6" cy="83.8" r="4.5"><title>Jul 9: 160</title></circle>
<circle cx="637.7" cy="73.7" r="4.5"><title>Jul 16: 165</title></circle>
<circle cx="684.9" cy="63.5" r="4.5"><title>Jul 23: 170</title></circle>
<circle cx="732.0" cy="175.1" r="4.5"><title>Jul 30: 115</title></circle></g>
  <text x="72" y="336" font-family="Inter, Arial, sans-serif" font-size="12" fill="#59636e" text-anchor="start">Apr 2</text>
  <text x="732" y="336" font-family="Inter, Arial, sans-serif" font-size="12" fill="#59636e" text-anchor="end">Jul 30</text>
</svg>
