<svg xmlns="http://www.w3.org/2000/svg" viewBox="0 0 760 360" role="img" aria-labelledby="title desc">
  <title>Incline DB Curl progress</title>
  <desc>average load per rep over time from Apr 2 to Jul 16.</desc>
  <rect width="100%" height="100%" fill="#ffffff"/>
  <text x="72" y="24" font-family="Inter, Arial, sans-serif" font-size="18" font-weight="700" fill="#1f2328">Incline DB Curl</text>
  <text x="72" y="44" font-family="Inter, Arial, sans-serif" font-size="12" fill="#59636e">average load per rep</text>
  <line x1="72" y1="302" x2="732" y2="302" stroke="#d7dde4"/>
  <line x1="72" y1="38" x2="72" y2="302" stroke="#d7dde4"/>
  <line x1="72" y1="170.0" x2="732" y2="170.0" stroke="#eef1f5"/>
  <text x="62" y="306.0" text-anchor="end">8.8</text>
<text x="62" y="174.0" text-anchor="end">15</text>
<text x="62" y="42.0" text-anchor="end">21.2</text>
  <polyline points="72.0,276.5 97.4,223.2 122.8,223.2 148.2,223.2 173.5,170.0 198.9,170.0 224.3,170.0 249.7,170.0 275.1,170.0 300.5,170.0 325.8,170.0 351.2,116.8 376.6,116.8 402.0,116.8 427.4,116.8 452.8,116.8 478.2,116.8 503.5,116.8 528.9,63.5 554.3,116.8 579.7,116.8 605.1,63.5 630.5,87.9 655.8,63.5 681.2,63.5 706.6,63.5 732.0,63.5" fill="none" stroke="#0b57d0" stroke-width="3" stroke-linecap="round" stroke-linejoin="round"/>
  <g fill="#0b57d0"><circle cx="72.0" cy="276.5" r="4.5"><title>Apr 2: 10</title></circle>
<circle cx="97.4" cy="223.2" r="4.5"><title>Apr 7: 12.5</title></circle>
<circle cx="122.8" cy="223.2" r="4.5"><title>Apr 9: 12.5</title></circle>
<circle cx="148.2" cy="223.2" r="4.5"><title>Apr 16: 12.5</title></circle>
<circle cx="173.5" cy="170.0" r="4.5"><title>Apr 21: 15</title></circle>
<circle cx="198.9" cy="170.0" r="4.5"><title>Apr 23: 15</title></circle>
<circle cx="224.3" cy="170.0" r="4.5"><title>Apr 28: 15</title></circle>
<circle cx="249.7" cy="170.0" r="4.5"><title>Apr 30: 15</title></circle>
<circle cx="275.1" cy="170.0" r="4.5"><title>May 5: 15</title></circle>
<circle cx="300.5" cy="170.0" r="4.5"><title>May 7: 15</title></circle>
<circle cx="325.8" cy="170.0" r="4.5"><title>May 12: 15</title></circle>
<circle cx="351.2" cy="116.8" r="4.5"><title>May 19: 17.5</title></circle>
<circle cx="376.6" cy="116.8" r="4.5"><title>May 21: 17.5</title></circle>
<circle cx="402.0" cy="116.8" r="4.5"><title>May 26: 17.5</title></circle>
<circle cx="427.4" cy="116.8" r="4.5"><title>May 28: 17.5</title></circle>
<circle cx="452.8" cy="116.8" r="4.5"><title>Jun 2: 17.5</title></circle>
<circle cx="478.2" cy="116.8" r="4.5"><title>Jun 4: 17.5</title></circle>
<circle cx="503.5" cy="116.8" r="4.5"><title>Jun 9: 17.5</title></circle>
<circle cx="528.9" cy="63.5" r="4.5"><title>Jun 11: 20</title></circle>
<circle cx="554.3" cy="116.8" r="4.5"><title>Jun 18: 17.5</title></circle>
<circle cx="579.7" cy="116.8" r="4.5"><title>Jun 23: 17.5</title></circle>
<circle cx="605.1" cy="63.5" r="4.5"><title>Jun 25: 20</title></circle>
<circle cx="630.5" cy="87.9" r="4.5"><title>Jul 2: 18.8571</title></circle>
<circle cx="655.8" cy="63.5" r="4.5"><title>Jul 7: 20</title></circle>
<circle cx="681.2" cy="63.5" r="4.5"><title>Jul 9: 20</title></circle>
<circle cx="706.6" cy="63.5" r="4.5"><title>Jul 14: 20</title></circle>
<circle cx="732.0" cy="63.5" r="4.5"><title>Jul 16: 20</title></circle></g>
  <text x="72" y="336" font-family="Inter, Arial, sans-serif" font-size="12" fill="#59636e" text-anchor="start">Apr 2</text>
  <text x="732" y="336" font-family="Inter, Arial, sans-serif" font-size="12" fill="#59636e" text-anchor="end">Jul 16</text>
</svg>
