<svg xmlns="http://www.w3.org/2000/svg" viewBox="0 0 760 360" role="img" aria-labelledby="title desc">
  <title>SA DB Row progress</title>
  <desc>average load per rep over time from Mar 31 to Jul 7.</desc>
  <rect width="100%" height="100%" fill="#ffffff"/>
  <text x="72" y="24" font-family="Inter, Arial, sans-serif" font-size="18" font-weight="700" fill="#1f2328">SA DB Row</text>
  <text x="72" y="44" font-family="Inter, Arial, sans-serif" font-size="12" fill="#59636e">average load per rep</text>
  <line x1="72" y1="302" x2="732" y2="302" stroke="#d7dde4"/>
  <line x1="72" y1="38" x2="72" y2="302" stroke="#d7dde4"/>
  <line x1="72" y1="170.0" x2="732" y2="170.0" stroke="#eef1f5"/>
  <text x="62" y="306.0" text-anchor="end">25.7333</text>
<text x="62" y="174.0" text-anchor="end">39.1667</text>
<text x="62" y="42.0" text-anchor="end">52.6</text>
  <polyline points="72.0,276.5 119.1,210.9 166.3,161.8 213.4,112.7 260.6,126.7 307.7,161.8 354.9,112.7 402.0,112.7 449.1,112.7 496.3,88.1 543.4,63.5 590.6,63.5 637.7,63.5 684.9,63.5 732.0,63.5" fill="none" stroke="#0b57d0" stroke-width="3" stroke-linecap="round" stroke-linejoin="round"/>
  <g fill="#0b57d0"><circle cx="72.0" cy="276.5" r="4.5"><title>Mar 31: 28.3333</title></circle>
<circle cx="119.1" cy="210.9" r="4.5"><title>Apr 7: 35</title></circle>
<circle cx="166.3" cy="161.8" r="4.5"><title>Apr 14: 40</title></circle>
<circle cx="213.4" cy="112.7" r="4.5"><title>Apr 21: 45</title></circle>
<circle cx="260.6" cy="126.7" r="4.5"><title>Apr 28: 43.5714</title></circle>
<circle cx="307.7" cy="161.8" r="4.5"><title>May 5: 40</title></circle>
<circle cx="354.9" cy="112.7" r="4.5"><title>May 12: 45</title></circle>
<circle cx="402.0" cy="112.7" r="4.5"><title>May 19: 45</title></circle>
<circle cx="449.1" cy="112.7" r="4.5"><title>May 26: 45</title></circle>
<circle cx="496.3" cy="88.1" r="4.5"><title>Jun 2: 47.5</title></circle>
<circle cx="543.4" cy="63.5" r="4.5"><title>Jun 9: 50</title></circle>
<circle cx="590.6" cy="63.5" r="4.5"><title>Jun 18: 50</title></circle>
<circle cx="637.7" cy="63.5" r="4.5"><title>Jun 23: 50</title></circle>
<circle cx="684.9" cy="63.5" r="4.5"><title>Jul 2: 50</title></circle>
<circle cx="732.0" cy="63.5" r="4.5"><title>Jul 7: 50</title></circle></g>
  <text x="72" y="336" font-family="Inter, Arial, sans-serif" font-size="12" fill="#59636e" text-anchor="start">Mar 31</text>
  <text x="732" y="336" font-family="Inter, Arial, sans-serif" font-size="12" fill="#59636e" text-anchor="end">Jul 7</text>
</svg>
