<svg xmlns="http://www.w3.org/2000/svg" viewBox="0 0 760 360" role="img" aria-labelledby="title desc">
  <title>Assisted Chin-up progress</title>
  <desc>average load per rep over time from Apr 2 to Jun 25.</desc>
  <rect width="100%" height="100%" fill="#ffffff"/>
  <text x="72" y="24" font-family="Inter, Arial, sans-serif" font-size="18" font-weight="700" fill="#1f2328">Assisted Chin-up</text>
  <text x="72" y="44" font-family="Inter, Arial, sans-serif" font-size="12" fill="#59636e">average load per rep</text>
  <line x1="72" y1="302" x2="732" y2="302" stroke="#d7dde4"/>
  <line x1="72" y1="38" x2="72" y2="302" stroke="#d7dde4"/>
  <line x1="72" y1="170.0" x2="732" y2="170.0" stroke="#eef1f5"/>
  <text x="62" y="306.0" text-anchor="end">7.76</text>
<text x="62" y="174.0" text-anchor="end">9</text>
<text x="62" y="42.0" text-anchor="end">10.24</text>
  <polyline points="72.0,63.5 138.0,63.5 204.0,63.5 270.0,63.5 336.0,63.5 402.0,170.0 468.0,170.0 534.0,170.0 600.0,170.0 666.0,170.0 732.0,276.5" fill="none" stroke="#0b57d0" stroke-width="3" stroke-linecap="round" stroke-linejoin="round"/>
  <g fill="#0b57d0"><circle cx="72.0" cy="63.5" r="4.5"><title>Apr 2: 10</title></circle>
<circle cx="138.0" cy="63.5" r="4.5"><title>Apr 9: 10</title></circle>
<circle cx="204.0" cy="63.5" r="4.5"><title>Apr 16: 10</title></circle>
<circle cx="270.0" cy="63.5" r="4.5"><title>Apr 23: 10</title></circle>
<circle cx="336.0" cy="63.5" r="4.5"><title>Apr 30: 10</title></circle>
<circle cx="402.0" cy="170.0" r="4.5"><title>May 7: 9</title></circle>
<circle cx="468.0" cy="170.0" r="4.5"><title>May 21: 9</title></circle>
<circle cx="534.0" cy="170.0" r="4.5"><title>May 28: 9</title></circle>
<circle cx="600.0" cy="170.0" r="4.5"><title>Jun 4: 9</title></circle>
<circle cx="666.0" cy="170.0" r="4.5"><title>Jun 11: 9</title></circle>
<circle cx="732.0" cy="276.5" r="4.5"><title>Jun 25: 8</title></circle></g>
  <text x="72" y="336" font-family="Inter, Arial, sans-serif" font-size="12" fill="#59636e" text-anchor="start">Apr 2</text>
  <text x="732" y="336" font-family="Inter, Arial, sans-serif" font-size="12" fill="#59636e" text-anchor="end">Jun 25</text>
</svg>
