<svg xmlns="http://www.w3.org/2000/svg" viewBox="0 0 760 380" role="img" aria-labelledby="title desc">
  <title>SL Calf Raise weight and reps over time</title>
  <desc>Dot plot from Apr 7 to Aug 18. Vertical position is weight and dot size represents reps or time.</desc>
  <rect width="100%" height="100%" fill="#ffffff"/>
  <text x="82" y="24" font-family="Inter, Arial, sans-serif" font-size="18" font-weight="700" fill="#1f2328">SL Calf Raise</text>
  <text x="82" y="44" font-family="Inter, Arial, sans-serif" font-size="12" fill="#59636e">Weight by date · dot size = reps/time</text>
  <line x1="82" y1="314" x2="732" y2="314" stroke="#d7dde4"/>
  <line x1="82" y1="58" x2="82" y2="314" stroke="#d7dde4"/>
  <line x1="82" y1="186.0" x2="732" y2="186.0" stroke="#eef1f5"/>
  <text x="70" y="318.0" text-anchor="end">BW</text><text x="70" y="190.0" text-anchor="end">11</text><text x="70" y="62.0" text-anchor="end">22</text>
  <g fill="#0b57d0" fill-opacity="0.62" stroke="#0847a8" stroke-width="1"><circle cx="82.0" cy="314.0" r="9.8"><title>Apr 7 · Set 1: BW weight, 8.0 reps/time</title></circle><circle cx="82.0" cy="314.0" r="9.8"><title>Apr 7 · Set 2: BW weight, 8.0 reps/time</title></circle><circle cx="89.0" cy="314.0" r="10.5"><title>Apr 7 · Set 3: BW weight, 10.0 reps/time</title></circle><circle cx="109.2" cy="314.0" r="10.5"><title>Apr 14 · Set 1: BW weight, 10.0 reps/time</title></circle><circle cx="116.2" cy="314.0" r="10.5"><title>Apr 14 · Set 2: BW weight, 10.0 reps/time</title></circle><circle cx="123.2" cy="314.0" r="10.5"><title>Apr 14 · Set 3: BW weight, 10.0 reps/time</title></circle><circle cx="143.4" cy="314.0" r="11.0"><title>Apr 21 · Set 1: BW weight, 12.0 reps/time</title></circle><circle cx="150.4" cy="314.0" r="11.0"><title>Apr 21 · Set 2: BW weight, 12.0 reps/time</title></circle><circle cx="157.4" cy="314.0" r="11.0"><title>Apr 21 · Set 3: BW weight, 12.0 reps/time</title></circle><circle cx="177.6" cy="314.0" r="11.3"><title>Apr 28 · Set 1: BW weight, 13.0 reps/time</title></circle><circle cx="184.6" cy="314.0" r="11.3"><title>Apr 28 · Set 2: BW weight, 13.0 reps/time</title></circle><circle cx="191.6" cy="314.0" r="11.3"><title>Apr 28 · Set 3: BW weight, 13.0 reps/time</title></circle><circle cx="211.8" cy="314.0" r="11.6"><title>May 5 · Set 1: BW weight, 14.0 reps/time</title></circle><circle cx="218.8" cy="314.0" r="11.6"><title>May 5 · Set 2: BW weight, 14.0 reps/time</title></circle><circle cx="225.8" cy="314.0" r="11.6"><title>May 5 · Set 3: BW weight, 14.0 reps/time</title></circle><circle cx="246.1" cy="197.6" r="11.8"><title>May 12 · Set 1: 10 weight, 15.0 reps/time</title></circle><circle cx="253.1" cy="197.6" r="11.8"><title>May 12 · Set 2: 10 weight, 15.0 reps/time</title></circle><circle cx="260.1" cy="197.6" r="11.8"><title>May 12 · Set 3: 10 weight, 15.0 reps/time</title></circle><circle cx="280.3" cy="174.4" r="11.8"><title>May 19 · Set 1: 12 weight, 15.0 reps/time</title></circle><circle cx="287.3" cy="174.4" r="11.8"><title>May 19 · Set 2: 12 weight, 15.0 reps/time</title></circle><circle cx="294.3" cy="174.4" r="12.5"><title>May 19 · Set 3: 12 weight, 18.0 reps/time</title></circle><circle cx="314.5" cy="139.5" r="11.8"><title>May 26 · Set 1: 15 weight, 15.0 reps/time</title></circle><circle cx="321.5" cy="139.5" r="11.8"><title>May 26 · Set 2: 15 weight, 15.0 reps/time</title></circle><circle cx="328.5" cy="139.5" r="11.8"><title>May 26 · Set 3: 15 weight, 15.0 reps/time</title></circle><circle cx="348.7" cy="110.4" r="11.8"><title>Jun 2 · Set 1: 17.5 weight, 15.0 reps/time</title></circle><circle cx="355.7" cy="110.4" r="11.8"><title>Jun 2 · Set 2: 17.5 weight, 15.0 reps/time</title></circle><circle cx="362.7" cy="110.4" r="11.8"><title>Jun 2 · Set 3: 17.5 weight, 15.0 reps/time</title></circle><circle cx="382.9" cy="81.3" r="11.8"><title>Jun 9 · Set 1: 20 weight, 15.0 reps/time</title></circle><circle cx="389.9" cy="81.3" r="11.8"><title>Jun 9 · Set 2: 20 weight, 15.0 reps/time</title></circle><circle cx="396.9" cy="81.3" r="11.8"><title>Jun 9 · Set 3: 20 weight, 15.0 reps/time</title></circle><circle cx="426.9" cy="81.3" r="11.8"><title>Jun 18 · Set 1: 20 weight, 15.0 reps/time</title></circle><circle cx="433.9" cy="81.3" r="11.8"><title>Jun 18 · Set 2: 20 weight, 15.0 reps/time</title></circle><circle cx="440.9" cy="81.3" r="11.8"><title>Jun 18 · Set 3: 20 weight, 15.0 reps/time</title></circle><circle cx="451.3" cy="81.3" r="4.5"><title>Jun 23 · Set 1: 20 weight, - reps/time</title></circle><circle cx="458.3" cy="81.3" r="4.5"><title>Jun 23 · Set 2: 20 weight, - reps/time</title></circle><circle cx="465.3" cy="81.3" r="4.5"><title>Jun 23 · Set 3: 20 weight, - reps/time</title></circle><circle cx="495.3" cy="81.3" r="4.5"><title>Jul 2 · Set 1: 20 weight, - reps/time</title></circle><circle cx="502.3" cy="81.3" r="4.5"><title>Jul 2 · Set 2: 20 weight, - reps/time</title></circle><circle cx="509.3" cy="81.3" r="4.5"><title>Jul 2 · Set 3: 20 weight, - reps/time</title></circle><circle cx="519.7" cy="81.3" r="4.5"><title>Jul 7 · Set 1: 20 weight, - reps/time</title></circle><circle cx="526.7" cy="81.3" r="4.5"><title>Jul 7 · Set 2: 20 weight, - reps/time</title></circle><circle cx="533.7" cy="81.3" r="4.5"><title>Jul 7 · Set 3: 20 weight, - reps/time</title></circle><circle cx="553.9" cy="81.3" r="11.8"><title>Jul 14 · Set 1: 20 weight, 15.0 reps/time</title></circle><circle cx="560.9" cy="81.3" r="11.8"><title>Jul 14 · Set 2: 20 weight, 15.0 reps/time</title></circle><circle cx="567.9" cy="81.3" r="4.5"><title>Jul 14 · Set 3: 20 weight, - reps/time</title></circle><circle cx="588.2" cy="81.3" r="4.5"><title>Jul 21 · Set 1: 20 weight, - reps/time</title></circle><circle cx="595.2" cy="81.3" r="4.5"><title>Jul 21 · Set 2: 20 weight, - reps/time</title></circle><circle cx="602.2" cy="81.3" r="4.5"><title>Jul 21 · Set 3: 20 weight, - reps/time</title></circle><circle cx="725.0" cy="81.3" r="4.5"><title>Aug 18 · Set 1: 20 weight, - reps/time</title></circle><circle cx="732.0" cy="81.3" r="4.5"><title>Aug 18 · Set 2: 20 weight, - reps/time</title></circle><circle cx="732.0" cy="81.3" r="4.5"><title>Aug 18 · Set 3: 20 weight, - reps/time</title></circle></g>
  <text x="30" y="186.0" font-family="Inter, Arial, sans-serif" font-size="12" fill="#59636e" text-anchor="middle" transform="rotate(-90 30 186.0)">Weight</text>
  <text x="82" y="350" font-family="Inter, Arial, sans-serif" font-size="12" fill="#59636e" text-anchor="start">Apr 7</text>
  <text x="732" y="350" font-family="Inter, Arial, sans-serif" font-size="12" fill="#59636e" text-anchor="end">Aug 18</text>
  <text x="407.0" y="370" font-family="Inter, Arial, sans-serif" font-size="12" fill="#59636e" text-anchor="middle">Time</text>
</svg>
