<svg xmlns="http://www.w3.org/2000/svg" viewBox="0 0 760 380" role="img" aria-labelledby="title desc">
  <title>Triceps Pressdown weight and reps over time</title>
  <desc>Dot plot from Apr 2 to Aug 18. Vertical position is weight and dot size represents reps or time.</desc>
  <rect width="100%" height="100%" fill="#ffffff"/>
  <text x="82" y="24" font-family="Inter, Arial, sans-serif" font-size="18" font-weight="700" fill="#1f2328">Triceps Pressdown</text>
  <text x="82" y="44" font-family="Inter, Arial, sans-serif" font-size="12" fill="#59636e">Weight by date · dot size = reps/time</text>
  <line x1="82" y1="314" x2="732" y2="314" stroke="#d7dde4"/>
  <line x1="82" y1="58" x2="82" y2="314" stroke="#d7dde4"/>
  <line x1="82" y1="186.0" x2="732" y2="186.0" stroke="#eef1f5"/>
  <text x="70" y="318.0" text-anchor="end">20.1</text><text x="70" y="190.0" text-anchor="end">32.5</text><text x="70" y="62.0" text-anchor="end">44.9</text>
  <g fill="#0b57d0" fill-opacity="0.62" stroke="#0847a8" stroke-width="1"><circle cx="82.0" cy="289.2" r="12.5"><title>Apr 2 · Set 1: 22.5 weight, 20.0 reps/time</title></circle><circle cx="82.0" cy="263.4" r="12.5"><title>Apr 2 · Set 2: 25 weight, 20.0 reps/time</title></circle><circle cx="89.0" cy="263.4" r="12.5"><title>Apr 2 · Set 3: 25 weight, 20.0 reps/time</title></circle><circle cx="108.0" cy="237.6" r="11.4"><title>Apr 9 · Set 1: 27.5 weight, 15.0 reps/time</title></circle><circle cx="115.0" cy="237.6" r="11.4"><title>Apr 9 · Set 2: 27.5 weight, 15.0 reps/time</title></circle><circle cx="122.0" cy="237.6" r="11.4"><title>Apr 9 · Set 3: 27.5 weight, 15.0 reps/time</title></circle><circle cx="140.9" cy="211.8" r="11.4"><title>Apr 16 · Set 1: 30 weight, 15.0 reps/time</title></circle><circle cx="147.9" cy="211.8" r="11.4"><title>Apr 16 · Set 2: 30 weight, 15.0 reps/time</title></circle><circle cx="154.9" cy="211.8" r="11.4"><title>Apr 16 · Set 3: 30 weight, 15.0 reps/time</title></circle><circle cx="173.9" cy="186.0" r="11.4"><title>Apr 23 · Set 1: 32.5 weight, 15.0 reps/time</title></circle><circle cx="180.9" cy="186.0" r="11.4"><title>Apr 23 · Set 2: 32.5 weight, 15.0 reps/time</title></circle><circle cx="187.9" cy="186.0" r="10.7"><title>Apr 23 · Set 3: 32.5 weight, 12.0 reps/time</title></circle><circle cx="197.5" cy="186.0" r="11.4"><title>Apr 28 · Set 1: 32.5 weight, 15.0 reps/time</title></circle><circle cx="204.5" cy="186.0" r="9.9"><title>Apr 28 · Set 2: 32.5 weight, 9.0 reps/time</title></circle><circle cx="211.5" cy="186.0" r="9.2"><title>Apr 28 · Set 3: 32.5 weight, 7.0 reps/time</title></circle><circle cx="206.9" cy="160.2" r="10.4"><title>Apr 30 · Set 1: 35 weight, 11.0 reps/time</title></circle><circle cx="213.9" cy="160.2" r="10.7"><title>Apr 30 · Set 2: 35 weight, 12.0 reps/time</title></circle><circle cx="220.9" cy="160.2" r="10.9"><title>Apr 30 · Set 3: 35 weight, 13.0 reps/time</title></circle><circle cx="230.4" cy="186.0" r="4.5"><title>May 5 · Set 1: 32.5 weight, - reps/time</title></circle><circle cx="237.4" cy="186.0" r="4.5"><title>May 5 · Set 2: 32.5 weight, - reps/time</title></circle><circle cx="244.4" cy="186.0" r="4.5"><title>May 5 · Set 3: 32.5 weight, - reps/time</title></circle><circle cx="239.9" cy="160.2" r="11.4"><title>May 7 · Set 1: 35 weight, 15.0 reps/time</title></circle><circle cx="246.9" cy="160.2" r="9.9"><title>May 7 · Set 2: 35 weight, 9.0 reps/time</title></circle><circle cx="253.9" cy="160.2" r="11.4"><title>May 7 · Set 3: 35 weight, 15.0 reps/time</title></circle><circle cx="263.4" cy="186.0" r="4.5"><title>May 12 · Set 1: 32.5 weight, - reps/time</title></circle><circle cx="270.4" cy="186.0" r="4.5"><title>May 12 · Set 2: 32.5 weight, - reps/time</title></circle><circle cx="277.4" cy="186.0" r="4.5"><title>May 12 · Set 3: 32.5 weight, - reps/time</title></circle><circle cx="296.4" cy="186.0" r="4.5"><title>May 19 · Set 1: 32.5 weight, - reps/time</title></circle><circle cx="303.4" cy="186.0" r="4.5"><title>May 19 · Set 2: 32.5 weight, - reps/time</title></circle><circle cx="310.4" cy="186.0" r="4.5"><title>May 19 · Set 3: 32.5 weight, - reps/time</title></circle><circle cx="305.8" cy="134.4" r="11.4"><title>May 21 · Set 1: 37.5 weight, 15.0 reps/time</title></circle><circle cx="312.8" cy="134.4" r="11.4"><title>May 21 · Set 2: 37.5 weight, 15.0 reps/time</title></circle><circle cx="319.8" cy="134.4" r="10.2"><title>May 21 · Set 3: 37.5 weight, 10.0 reps/time</title></circle><circle cx="329.3" cy="186.0" r="4.5"><title>May 26 · Set 1: 32.5 weight, - reps/time</title></circle><circle cx="336.3" cy="186.0" r="4.5"><title>May 26 · Set 2: 32.5 weight, - reps/time</title></circle><circle cx="343.3" cy="186.0" r="4.5"><title>May 26 · Set 3: 32.5 weight, - reps/time</title></circle><circle cx="338.8" cy="134.4" r="11.4"><title>May 28 · Set 1: 37.5 weight, 15.0 reps/time</title></circle><circle cx="345.8" cy="134.4" r="11.4"><title>May 28 · Set 2: 37.5 weight, 15.0 reps/time</title></circle><circle cx="352.8" cy="134.4" r="11.4"><title>May 28 · Set 3: 37.5 weight, 15.0 reps/time</title></circle><circle cx="362.3" cy="186.0" r="4.5"><title>Jun 2 · Set 1: 32.5 weight, - reps/time</title></circle><circle cx="369.3" cy="186.0" r="4.5"><title>Jun 2 · Set 2: 32.5 weight, - reps/time</title></circle><circle cx="376.3" cy="186.0" r="4.5"><title>Jun 2 · Set 3: 32.5 weight, - reps/time</title></circle><circle cx="371.7" cy="108.6" r="10.7"><title>Jun 4 · Set 1: 40 weight, 12.0 reps/time</title></circle><circle cx="378.7" cy="108.6" r="11.4"><title>Jun 4 · Set 2: 40 weight, 15.0 reps/time</title></circle><circle cx="385.7" cy="108.6" r="10.9"><title>Jun 4 · Set 3: 40 weight, 13.0 reps/time</title></circle><circle cx="395.3" cy="186.0" r="4.5"><title>Jun 9 · Set 1: 32.5 weight, - reps/time</title></circle><circle cx="402.3" cy="186.0" r="4.5"><title>Jun 9 · Set 2: 32.5 weight, - reps/time</title></circle><circle cx="409.3" cy="186.0" r="4.5"><title>Jun 9 · Set 3: 32.5 weight, - reps/time</title></circle><circle cx="404.7" cy="108.6" r="10.9"><title>Jun 11 · Set 1: 40 weight, 13.0 reps/time</title></circle><circle cx="411.7" cy="108.6" r="11.4"><title>Jun 11 · Set 2: 40 weight, 15.0 reps/time</title></circle><circle cx="418.7" cy="108.6" r="4.5"><title>Jun 11 · Set 3: 40 weight, - reps/time</title></circle><circle cx="437.7" cy="186.0" r="4.5"><title>Jun 18 · Set 1: 32.5 weight, - reps/time</title></circle><circle cx="444.7" cy="186.0" r="4.5"><title>Jun 18 · Set 2: 32.5 weight, - reps/time</title></circle><circle cx="451.7" cy="186.0" r="4.5"><title>Jun 18 · Set 3: 32.5 weight, - reps/time</title></circle><circle cx="461.2" cy="186.0" r="4.5"><title>Jun 23 · Set 1: 32.5 weight, - reps/time</title></circle><circle cx="468.2" cy="186.0" r="4.5"><title>Jun 23 · Set 2: 32.5 weight, - reps/time</title></circle><circle cx="475.2" cy="186.0" r="4.5"><title>Jun 23 · Set 3: 32.5 weight, - reps/time</title></circle><circle cx="470.7" cy="108.6" r="10.2"><title>Jun 25 · Set 1: 40 weight, 10.0 reps/time</title></circle><circle cx="477.7" cy="108.6" r="11.2"><title>Jun 25 · Set 2: 40 weight, 14.0 reps/time</title></circle><circle cx="484.7" cy="108.6" r="11.4"><title>Jun 25 · Set 3: 40 weight, 15.0 reps/time</title></circle><circle cx="503.6" cy="186.0" r="4.5"><title>Jul 2 · Set 1: 32.5 weight, - reps/time</title></circle><circle cx="510.6" cy="186.0" r="4.5"><title>Jul 2 · Set 2: 32.5 weight, - reps/time</title></circle><circle cx="517.6" cy="186.0" r="4.5"><title>Jul 2 · Set 3: 32.5 weight, - reps/time</title></circle><circle cx="527.2" cy="186.0" r="4.5"><title>Jul 7 · Set 1: 32.5 weight, - reps/time</title></circle><circle cx="534.2" cy="186.0" r="4.5"><title>Jul 7 · Set 2: 32.5 weight, - reps/time</title></circle><circle cx="541.2" cy="186.0" r="4.5"><title>Jul 7 · Set 3: 32.5 weight, - reps/time</title></circle><circle cx="536.6" cy="108.6" r="10.7"><title>Jul 9 · Set 1: 40 weight, 12.0 reps/time</title></circle><circle cx="543.6" cy="108.6" r="10.7"><title>Jul 9 · Set 2: 40 weight, 12.0 reps/time</title></circle><circle cx="550.6" cy="108.6" r="10.2"><title>Jul 9 · Set 3: 40 weight, 10.0 reps/time</title></circle><circle cx="560.1" cy="186.0" r="4.5"><title>Jul 14 · Set 1: 32.5 weight, - reps/time</title></circle><circle cx="567.1" cy="186.0" r="4.5"><title>Jul 14 · Set 2: 32.5 weight, - reps/time</title></circle><circle cx="574.1" cy="186.0" r="4.5"><title>Jul 14 · Set 3: 32.5 weight, - reps/time</title></circle><circle cx="569.6" cy="108.6" r="10.7"><title>Jul 16 · Set 1: 40 weight, 12.0 reps/time</title></circle><circle cx="576.6" cy="108.6" r="10.9"><title>Jul 16 · Set 2: 40 weight, 13.0 reps/time</title></circle><circle cx="583.6" cy="108.6" r="10.4"><title>Jul 16 · Set 3: 40 weight, 11.0 reps/time</title></circle><circle cx="593.1" cy="186.0" r="4.5"><title>Jul 21 · Set 1: 32.5 weight, - reps/time</title></circle><circle cx="600.1" cy="186.0" r="4.5"><title>Jul 21 · Set 2: 32.5 weight, - reps/time</title></circle><circle cx="607.1" cy="186.0" r="4.5"><title>Jul 21 · Set 3: 32.5 weight, - reps/time</title></circle><circle cx="602.5" cy="108.6" r="11.4"><title>Jul 23 · Set 1: 40 weight, 15.0 reps/time</title></circle><circle cx="609.5" cy="108.6" r="11.2"><title>Jul 23 · Set 2: 40 weight, 14.0 reps/time</title></circle><circle cx="616.5" cy="108.6" r="9.9"><title>Jul 23 · Set 3: 40 weight, 9.0 reps/time</title></circle><circle cx="668.5" cy="134.4" r="11.2"><title>Aug 6 · Set 1: 37.5 weight, 14.0 reps/time</title></circle><circle cx="675.5" cy="82.8" r="9.9"><title>Aug 6 · Set 2: 42.5 weight, 9.0 reps/time</title></circle><circle cx="682.5" cy="82.8" r="10.2"><title>Aug 6 · Set 3: 42.5 weight, 10.0 reps/time</title></circle><circle cx="701.4" cy="82.8" r="10.7"><title>Aug 13 · Set 1: 42.5 weight, 12.0 reps/time</title></circle><circle cx="708.4" cy="82.8" r="10.7"><title>Aug 13 · Set 2: 42.5 weight, 12.0 reps/time</title></circle><circle cx="715.4" cy="82.8" r="9.6"><title>Aug 13 · Set 3: 42.5 weight, 8.0 reps/time</title></circle><circle cx="725.0" cy="82.8" r="4.5"><title>Aug 18 · Set 1: 42.5 weight, - reps/time</title></circle><circle cx="732.0" cy="82.8" r="4.5"><title>Aug 18 · Set 2: 42.5 weight, - reps/time</title></circle><circle cx="732.0" cy="82.8" r="4.5"><title>Aug 18 · Set 3: 42.5 weight, - reps/time</title></circle></g>
  <text x="30" y="186.0" font-family="Inter, Arial, sans-serif" font-size="12" fill="#59636e" text-anchor="middle" transform="rotate(-90 30 186.0)">Weight</text>
  <text x="82" y="350" font-family="Inter, Arial, sans-serif" font-size="12" fill="#59636e" text-anchor="start">Apr 2</text>
  <text x="732" y="350" font-family="Inter, Arial, sans-serif" font-size="12" fill="#59636e" text-anchor="end">Aug 18</text>
  <text x="407.0" y="370" font-family="Inter, Arial, sans-serif" font-size="12" fill="#59636e" text-anchor="middle">Time</text>
</svg>
