<svg xmlns="http://www.w3.org/2000/svg" viewBox="0 0 760 380" role="img" aria-labelledby="title desc">
  <title>Incline DB Press weight and reps over time</title>
  <desc>Dot plot from Apr 2 to Aug 13. Vertical position is weight and dot size represents reps or time.</desc>
  <rect width="100%" height="100%" fill="#ffffff"/>
  <text x="82" y="24" font-family="Inter, Arial, sans-serif" font-size="18" font-weight="700" fill="#1f2328">Incline DB Press</text>
  <text x="82" y="44" font-family="Inter, Arial, sans-serif" font-size="12" fill="#59636e">Weight by date · dot size = reps/time</text>
  <line x1="82" y1="314" x2="732" y2="314" stroke="#d7dde4"/>
  <line x1="82" y1="58" x2="82" y2="314" stroke="#d7dde4"/>
  <line x1="82" y1="186.0" x2="732" y2="186.0" stroke="#eef1f5"/>
  <text x="70" y="318.0" text-anchor="end">12.6</text><text x="70" y="190.0" text-anchor="end">25</text><text x="70" y="62.0" text-anchor="end">37.4</text>
  <g fill="#0b57d0" fill-opacity="0.62" stroke="#0847a8" stroke-width="1"><circle cx="82.0" cy="289.2" r="11.7"><title>Apr 2 · Set 1: 15 weight, 12.0 reps/time</title></circle><circle cx="82.0" cy="289.2" r="11.7"><title>Apr 2 · Set 2: 15 weight, 12.0 reps/time</title></circle><circle cx="89.0" cy="289.2" r="4.5"><title>Apr 2 · Set 3: 15 weight, not recorded reps/time</title></circle><circle cx="109.2" cy="263.4" r="12.5"><title>Apr 9 · Set 1: 17.5 weight, 15.0 reps/time</title></circle><circle cx="116.2" cy="263.4" r="12.5"><title>Apr 9 · Set 2: 17.5 weight, 15.0 reps/time</title></circle><circle cx="123.2" cy="263.4" r="12.5"><title>Apr 9 · Set 3: 17.5 weight, 15.0 reps/time</title></circle><circle cx="143.4" cy="237.6" r="11.7"><title>Apr 16 · Set 1: 20 weight, 12.0 reps/time</title></circle><circle cx="150.4" cy="237.6" r="11.7"><title>Apr 16 · Set 2: 20 weight, 12.0 reps/time</title></circle><circle cx="157.4" cy="237.6" r="11.7"><title>Apr 16 · Set 3: 20 weight, 12.0 reps/time</title></circle><circle cx="177.6" cy="211.8" r="11.7"><title>Apr 23 · Set 1: 22.5 weight, 12.0 reps/time</title></circle><circle cx="184.6" cy="211.8" r="11.7"><title>Apr 23 · Set 2: 22.5 weight, 12.0 reps/time</title></circle><circle cx="191.6" cy="211.8" r="11.7"><title>Apr 23 · Set 3: 22.5 weight, 12.0 reps/time</title></circle><circle cx="211.8" cy="186.0" r="11.7"><title>Apr 30 · Set 1: 25 weight, 12.0 reps/time</title></circle><circle cx="218.8" cy="186.0" r="11.7"><title>Apr 30 · Set 2: 25 weight, 12.0 reps/time</title></circle><circle cx="225.8" cy="186.0" r="11.7"><title>Apr 30 · Set 3: 25 weight, 12.0 reps/time</title></circle><circle cx="246.1" cy="160.2" r="11.7"><title>May 7 · Set 1: 27.5 weight, 12.0 reps/time</title></circle><circle cx="253.1" cy="160.2" r="11.7"><title>May 7 · Set 2: 27.5 weight, 12.0 reps/time</title></circle><circle cx="260.1" cy="160.2" r="11.7"><title>May 7 · Set 3: 27.5 weight, 12.0 reps/time</title></circle><circle cx="314.5" cy="160.2" r="12.2"><title>May 21 · Set 1: 27.5 weight, 14.0 reps/time</title></circle><circle cx="321.5" cy="160.2" r="12.5"><title>May 21 · Set 2: 27.5 weight, 15.0 reps/time</title></circle><circle cx="328.5" cy="160.2" r="12.2"><title>May 21 · Set 3: 27.5 weight, 14.0 reps/time</title></circle><circle cx="348.7" cy="134.4" r="11.9"><title>May 28 · Set 1: 30 weight, 13.0 reps/time</title></circle><circle cx="355.7" cy="134.4" r="11.9"><title>May 28 · Set 2: 30 weight, 13.0 reps/time</title></circle><circle cx="362.7" cy="134.4" r="11.4"><title>May 28 · Set 3: 30 weight, 11.0 reps/time</title></circle><circle cx="382.9" cy="134.4" r="12.5"><title>Jun 4 · Set 1: 30 weight, 15.0 reps/time</title></circle><circle cx="389.9" cy="134.4" r="12.5"><title>Jun 4 · Set 2: 30 weight, 15.0 reps/time</title></circle><circle cx="396.9" cy="134.4" r="12.2"><title>Jun 4 · Set 3: 30 weight, 14.0 reps/time</title></circle><circle cx="417.1" cy="108.6" r="10.0"><title>Jun 11 · Set 1: 32.5 weight, 7.0 reps/time</title></circle><circle cx="424.1" cy="108.6" r="10.7"><title>Jun 11 · Set 2: 32.5 weight, 9.0 reps/time</title></circle><circle cx="431.1" cy="108.6" r="11.4"><title>Jun 11 · Set 3: 32.5 weight, 11.0 reps/time</title></circle><circle cx="485.5" cy="108.6" r="11.7"><title>Jun 25 · Set 1: 32.5 weight, 12.0 reps/time</title></circle><circle cx="492.5" cy="108.6" r="11.9"><title>Jun 25 · Set 2: 32.5 weight, 13.0 reps/time</title></circle><circle cx="499.5" cy="108.6" r="11.4"><title>Jun 25 · Set 3: 32.5 weight, 11.0 reps/time</title></circle><circle cx="553.9" cy="108.6" r="12.2"><title>Jul 9 · Set 1: 32.5 weight, 14.0 reps/time</title></circle><circle cx="560.9" cy="108.6" r="11.4"><title>Jul 9 · Set 2: 32.5 weight, 11.0 reps/time</title></circle><circle cx="567.9" cy="108.6" r="11.0"><title>Jul 9 · Set 3: 32.5 weight, 10.0 reps/time</title></circle><circle cx="588.2" cy="82.8" r="11.4"><title>Jul 16 · Set 1: 35 weight, 11.0 reps/time</title></circle><circle cx="595.2" cy="82.8" r="10.7"><title>Jul 16 · Set 2: 35 weight, 9.0 reps/time</title></circle><circle cx="602.2" cy="82.8" r="9.6"><title>Jul 16 · Set 3: 35 weight, 6.0 reps/time</title></circle><circle cx="622.4" cy="82.8" r="10.3"><title>Jul 23 · Set 1: 35 weight, 8.0 reps/time</title></circle><circle cx="629.4" cy="82.8" r="10.7"><title>Jul 23 · Set 2: 35 weight, 9.0 reps/time</title></circle><circle cx="636.4" cy="82.8" r="10.0"><title>Jul 23 · Set 3: 35 weight, 7.0 reps/time</title></circle><circle cx="690.8" cy="82.8" r="11.0"><title>Aug 6 · Set 1: 35 weight, 10.0 reps/time</title></circle><circle cx="697.8" cy="82.8" r="10.0"><title>Aug 6 · Set 2: 35 weight, 7.0 reps/time</title></circle><circle cx="704.8" cy="82.8" r="9.6"><title>Aug 6 · Set 3: 35 weight, 6.0 reps/time</title></circle><circle cx="725.0" cy="82.8" r="11.4"><title>Aug 13 · Set 1: 35 weight, 11.0 reps/time</title></circle><circle cx="732.0" cy="82.8" r="10.7"><title>Aug 13 · Set 2: 35 weight, 9.0 reps/time</title></circle><circle cx="732.0" cy="82.8" r="10.3"><title>Aug 13 · Set 3: 35 weight, 8.0 reps/time</title></circle></g>
  <text x="30" y="186.0" font-family="Inter, Arial, sans-serif" font-size="12" fill="#59636e" text-anchor="middle" transform="rotate(-90 30 186.0)">Weight</text>
  <text x="82" y="350" font-family="Inter, Arial, sans-serif" font-size="12" fill="#59636e" text-anchor="start">Apr 2</text>
  <text x="732" y="350" font-family="Inter, Arial, sans-serif" font-size="12" fill="#59636e" text-anchor="end">Aug 13</text>
  <text x="407.0" y="370" font-family="Inter, Arial, sans-serif" font-size="12" fill="#59636e" text-anchor="middle">Time</text>
</svg>
