<svg xmlns="http://www.w3.org/2000/svg" viewBox="0 0 760 380" role="img" aria-labelledby="title desc">
  <title>BB Squat weight and reps over time</title>
  <desc>Dot plot from May 5 to Aug 4. Vertical position is weight and dot size represents reps or time.</desc>
  <rect width="100%" height="100%" fill="#ffffff"/>
  <text x="82" y="24" font-family="Inter, Arial, sans-serif" font-size="18" font-weight="700" fill="#1f2328">BB Squat</text>
  <text x="82" y="44" font-family="Inter, Arial, sans-serif" font-size="12" fill="#59636e">Weight by date · dot size = reps/time</text>
  <line x1="82" y1="314" x2="732" y2="314" stroke="#d7dde4"/>
  <line x1="82" y1="58" x2="82" y2="314" stroke="#d7dde4"/>
  <line x1="82" y1="186.0" x2="732" y2="186.0" stroke="#eef1f5"/>
  <text x="70" y="318.0" text-anchor="end">40.2</text><text x="70" y="190.0" text-anchor="end">65</text><text x="70" y="62.0" text-anchor="end">89.8</text>
  <g fill="#0b57d0" fill-opacity="0.62" stroke="#0847a8" stroke-width="1"><circle cx="82.0" cy="289.2" r="12.1"><title>May 5 · Set 1: 45 weight, 10.0 reps/time</title></circle><circle cx="82.0" cy="289.2" r="12.1"><title>May 5 · Set 2: 45 weight, 10.0 reps/time</title></circle><circle cx="85.5" cy="289.2" r="12.1"><title>May 5 · Set 3: 45 weight, 10.0 reps/time</title></circle><circle cx="92.5" cy="289.2" r="12.1"><title>May 5 · Set 4: 45 weight, 10.0 reps/time</title></circle><circle cx="121.5" cy="289.2" r="12.1"><title>May 12 · Set 1: 45 weight, 10.0 reps/time</title></circle><circle cx="128.5" cy="289.2" r="12.1"><title>May 12 · Set 2: 45 weight, 10.0 reps/time</title></circle><circle cx="135.5" cy="289.2" r="12.1"><title>May 12 · Set 3: 45 weight, 10.0 reps/time</title></circle><circle cx="142.5" cy="289.2" r="12.1"><title>May 12 · Set 4: 45 weight, 10.0 reps/time</title></circle><circle cx="171.5" cy="289.2" r="12.1"><title>May 19 · Set 1: 45 weight, 10.0 reps/time</title></circle><circle cx="178.5" cy="263.4" r="12.1"><title>May 19 · Set 2: 50 weight, 10.0 reps/time</title></circle><circle cx="185.5" cy="263.4" r="12.1"><title>May 19 · Set 3: 50 weight, 10.0 reps/time</title></circle><circle cx="192.5" cy="263.4" r="12.1"><title>May 19 · Set 4: 50 weight, 10.0 reps/time</title></circle><circle cx="221.5" cy="237.6" r="12.1"><title>May 26 · Set 1: 55 weight, 10.0 reps/time</title></circle><circle cx="228.5" cy="237.6" r="12.1"><title>May 26 · Set 2: 55 weight, 10.0 reps/time</title></circle><circle cx="235.5" cy="237.6" r="12.1"><title>May 26 · Set 3: 55 weight, 10.0 reps/time</title></circle><circle cx="242.5" cy="237.6" r="12.1"><title>May 26 · Set 4: 55 weight, 10.0 reps/time</title></circle><circle cx="271.5" cy="289.2" r="12.1"><title>Jun 2 · Set 1: 45 weight, 10.0 reps/time</title></circle><circle cx="278.5" cy="211.8" r="12.1"><title>Jun 2 · Set 2: 60 weight, 10.0 reps/time</title></circle><circle cx="285.5" cy="211.8" r="12.1"><title>Jun 2 · Set 3: 60 weight, 10.0 reps/time</title></circle><circle cx="292.5" cy="211.8" r="12.1"><title>Jun 2 · Set 4: 60 weight, 10.0 reps/time</title></circle><circle cx="321.5" cy="289.2" r="12.1"><title>Jun 9 · Set 1: 45 weight, 10.0 reps/time</title></circle><circle cx="328.5" cy="186.0" r="12.1"><title>Jun 9 · Set 2: 65 weight, 10.0 reps/time</title></circle><circle cx="335.5" cy="186.0" r="12.1"><title>Jun 9 · Set 3: 65 weight, 10.0 reps/time</title></circle><circle cx="342.5" cy="186.0" r="12.1"><title>Jun 9 · Set 4: 65 weight, 10.0 reps/time</title></circle><circle cx="385.8" cy="289.2" r="12.1"><title>Jun 18 · Set 1: 45 weight, 10.0 reps/time</title></circle><circle cx="392.8" cy="186.0" r="12.1"><title>Jun 18 · Set 2: 65 weight, 10.0 reps/time</title></circle><circle cx="399.8" cy="186.0" r="12.1"><title>Jun 18 · Set 3: 65 weight, 10.0 reps/time</title></circle><circle cx="406.8" cy="186.0" r="12.1"><title>Jun 18 · Set 4: 65 weight, 10.0 reps/time</title></circle><circle cx="425.0" cy="160.2" r="12.1"><title>Jun 23 · Set 1: 70 weight, 10.0 reps/time</title></circle><circle cx="432.0" cy="160.2" r="12.1"><title>Jun 23 · Set 2: 70 weight, 10.0 reps/time</title></circle><circle cx="439.0" cy="160.2" r="12.1"><title>Jun 23 · Set 3: 70 weight, 10.0 reps/time</title></circle><circle cx="489.3" cy="134.4" r="12.1"><title>Jul 2 · Set 1: 75 weight, 10.0 reps/time</title></circle><circle cx="496.3" cy="134.4" r="12.1"><title>Jul 2 · Set 2: 75 weight, 10.0 reps/time</title></circle><circle cx="503.3" cy="134.4" r="12.1"><title>Jul 2 · Set 3: 75 weight, 10.0 reps/time</title></circle><circle cx="525.0" cy="108.6" r="10.9"><title>Jul 7 · Set 1: 80 weight, 7.0 reps/time</title></circle><circle cx="532.0" cy="108.6" r="12.1"><title>Jul 7 · Set 2: 80 weight, 10.0 reps/time</title></circle><circle cx="539.0" cy="108.6" r="12.1"><title>Jul 7 · Set 3: 80 weight, 10.0 reps/time</title></circle><circle cx="575.0" cy="108.6" r="12.1"><title>Jul 14 · Set 1: 80 weight, 10.0 reps/time</title></circle><circle cx="582.0" cy="108.6" r="12.1"><title>Jul 14 · Set 2: 80 weight, 10.0 reps/time</title></circle><circle cx="589.0" cy="108.6" r="12.1"><title>Jul 14 · Set 3: 80 weight, 10.0 reps/time</title></circle><circle cx="625.0" cy="82.8" r="12.1"><title>Jul 21 · Set 1: 85 weight, 10.0 reps/time</title></circle><circle cx="632.0" cy="82.8" r="12.1"><title>Jul 21 · Set 2: 85 weight, 10.0 reps/time</title></circle><circle cx="639.0" cy="82.8" r="12.1"><title>Jul 21 · Set 3: 85 weight, 10.0 reps/time</title></circle><circle cx="725.0" cy="82.8" r="12.1"><title>Aug 4 · Set 1: 85 weight, 10.0 reps/time</title></circle><circle cx="732.0" cy="82.8" r="12.1"><title>Aug 4 · Set 2: 85 weight, 10.0 reps/time</title></circle><circle cx="732.0" cy="82.8" r="12.5"><title>Aug 4 · Set 3: 85 weight, 11.0 reps/time</title></circle></g>
  <text x="30" y="186.0" font-family="Inter, Arial, sans-serif" font-size="12" fill="#59636e" text-anchor="middle" transform="rotate(-90 30 186.0)">Weight</text>
  <text x="82" y="350" font-family="Inter, Arial, sans-serif" font-size="12" fill="#59636e" text-anchor="start">May 5</text>
  <text x="732" y="350" font-family="Inter, Arial, sans-serif" font-size="12" fill="#59636e" text-anchor="end">Aug 4</text>
  <text x="407.0" y="370" font-family="Inter, Arial, sans-serif" font-size="12" fill="#59636e" text-anchor="middle">Time</text>
</svg>
